<?xml version="1.0" standalone="no"?>
<!DOCTYPE svg PUBLIC "-//W3C//DTD SVG 20010904//EN"
 "http://www.w3.org/TR/2001/REC-SVG-20010904/DTD/svg10.dtd">
<svg version="1.0" xmlns="http://www.w3.org/2000/svg"
 width="300.000000pt" height="300.000000pt" viewBox="0 0 300.000000 300.000000"
 preserveAspectRatio="xMidYMid meet">
<metadata>
Created by potrace 1.14, written by Peter Selinger 2001-2017
</metadata>
<g transform="translate(0.000000,300.000000) scale(0.100000,-0.100000)"
fill="#000000" stroke="none">
<path d="M472 2752 c-13 -2 -27 -14 -32 -28 -6 -14 -8 -322 -6 -750 l3 -725
-26 -47 c-13 -26 -35 -65 -48 -87 -12 -22 -27 -49 -32 -60 -5 -11 -32 -60 -60
-108 -28 -49 -51 -90 -51 -92 0 -1 -34 -62 -75 -135 -41 -73 -75 -134 -75
-136 0 -1 -16 -30 -35 -63 -33 -56 -35 -65 -34 -138 2 -88 18 -128 51 -136 13
-3 667 -4 1454 -2 1071 2 1437 6 1453 14 31 17 41 51 41 133 l0 71 -175 356
c-97 196 -180 363 -185 371 -6 8 -14 25 -20 38 -6 14 -11 300 -12 749 -3 713
-3 728 -23 751 l-20 23 -1035 2 c-569 2 -1045 1 -1058 -1z"/>
</g>
</svg>
